<svg width="285" height="159" viewBox="0 0 285 159" fill="none" xmlns="http://www.w3.org/2000/svg">
<rect width="284.6" height="159" rx="10" fill="#AC4CBC"/>
<mask id="mask0_1_1162" style="mask-type:alpha" maskUnits="userSpaceOnUse" x="0" y="0" width="285" height="159">
<rect width="284.6" height="158.944" rx="10" fill="black"/>
</mask>
<g mask="url(#mask0_1_1162)">
<g opacity="0.08">
<path opacity="0.0344828" d="M123.127 9.92679C143.906 -13.4648 167.143 -33.5706 187.892 -47.1671C198.273 -53.9694 207.986 -59.1126 216.414 -62.2278C224.917 -65.3713 231.738 -66.3173 236.598 -65.1681C241.457 -64.0187 244.521 -60.7348 245.457 -55.3585C246.384 -50.0305 245.175 -42.8762 241.964 -34.3778C235.548 -17.3913 221.199 4.8168 200.421 28.2084C179.642 51.6002 156.404 71.7063 135.655 85.3029C125.274 92.1053 115.56 97.2481 107.133 100.363C98.6287 103.507 91.8079 104.453 86.9484 103.304C82.0891 102.154 79.0255 98.8702 78.0895 93.494C77.162 88.1661 78.3725 81.0119 81.5828 72.5136C87.9996 55.527 102.349 33.3186 123.127 9.92679Z" stroke="white" stroke-width="2"/>
<path opacity="0.0689655" d="M126.234 8.1243C151.064 -14.2066 177.784 -33.1679 200.888 -45.7718C212.447 -52.0774 223.054 -56.7656 232.027 -59.4949C236.513 -60.8596 240.535 -61.7171 244.019 -62.0557C247.494 -62.3932 250.355 -62.209 252.638 -61.5449C254.921 -60.8808 256.693 -59.717 257.902 -58.017C259.114 -56.312 259.73 -54.1056 259.73 -51.4355C259.73 -46.0959 257.275 -39.0362 252.588 -30.7314C243.22 -14.1314 225.017 7.30758 200.187 29.6385C175.356 51.9694 148.637 70.9302 125.533 83.534C113.974 89.8396 103.367 94.5279 94.3941 97.2572C89.9072 98.622 85.8847 99.4796 82.3999 99.8182C78.9257 100.156 76.0647 99.971 73.7818 99.3069C71.499 98.6427 69.7262 97.4794 68.5174 95.7795C67.3049 94.0745 66.691 91.8679 66.6908 89.1978C66.6904 83.8581 69.146 76.7985 73.8328 68.4937C83.2011 51.8938 101.403 30.4552 126.234 8.1243Z" stroke="white" stroke-width="2"/>
<path opacity="0.103448" d="M129.624 6.4085C158.318 -14.6904 188.315 -32.3605 213.599 -43.8742C226.248 -49.6344 237.671 -53.8317 247.121 -56.1532C251.848 -57.3143 256.021 -57.9907 259.561 -58.1745C263.094 -58.358 265.885 -58.0465 268.003 -57.3037C270.12 -56.5609 271.681 -55.3459 272.594 -53.6029C273.509 -51.8562 273.74 -49.6349 273.276 -46.9786C272.347 -41.6681 268.662 -34.7565 262.533 -26.7089C250.282 -10.6234 228.364 9.8805 199.67 30.9794C170.976 52.0785 140.978 69.7489 115.694 81.2626C103.045 87.0228 91.6229 91.2196 82.1727 93.5411C77.4455 94.7023 73.2733 95.3786 69.7328 95.5624C66.1995 95.7459 63.4093 95.4352 61.2917 94.6925C59.174 93.9496 57.6132 92.7341 56.7001 90.9908C55.7851 89.244 55.5534 87.0229 56.0181 84.3665C56.9472 79.056 60.6316 72.1449 66.7603 64.0973C79.0107 48.0117 100.93 27.5076 129.624 6.4085Z" stroke="white" stroke-width="2"/>
<path opacity="0.137931" d="M133.281 4.79283C165.621 -14.9129 198.669 -31.1567 225.941 -41.4911C239.584 -46.6611 251.733 -50.3335 261.589 -52.2282C266.521 -53.1763 270.813 -53.6662 274.383 -53.6939C277.953 -53.7217 280.649 -53.2891 282.584 -52.4801C284.519 -51.6711 285.864 -50.4147 286.475 -48.6391C287.085 -46.8631 286.931 -44.6437 286.003 -42.0217C284.15 -36.7813 279.262 -30.0728 271.738 -22.3447C256.697 -6.89712 231.229 12.5154 198.889 32.2212C166.549 51.9269 133.5 68.1707 106.229 78.5051C92.5857 83.6752 80.4357 87.3479 70.5795 89.2427C65.6479 90.1907 61.3562 90.6806 57.7854 90.7084C54.2153 90.7361 51.5197 90.3028 49.5845 89.4937C47.6496 88.6847 46.3049 87.4289 45.6943 85.6535C45.0836 83.8776 45.2384 81.6581 46.1657 79.0361C48.0193 73.7957 52.907 67.0869 60.4315 59.3587C75.4721 43.9111 100.941 24.4986 133.281 4.79283Z" stroke="white" stroke-width="2"/>
<path opacity="0.172414" d="M137.184 3.28809C172.923 -14.8735 208.771 -29.5659 237.822 -38.641C252.355 -43.181 265.14 -46.3004 275.327 -47.7529C280.426 -48.4798 284.804 -48.779 288.379 -48.6503C291.963 -48.5213 294.54 -47.9724 296.28 -47.1105C298.019 -46.2485 299.146 -44.9622 299.449 -43.1656C299.75 -41.3733 299.209 -39.1726 297.825 -36.6054C295.06 -31.4758 289.005 -25.0214 280.142 -17.672C262.424 -2.98125 233.599 15.1907 197.859 33.3522C162.12 51.5139 126.272 66.2066 97.2209 75.2817C82.6877 79.8217 69.9029 82.9407 59.716 84.3932C54.6178 85.1201 50.2392 85.4193 46.6639 85.2906C43.0799 85.1616 40.5024 84.6123 38.7627 83.7503C37.0234 82.8884 35.897 81.6024 35.5947 79.8059C35.2931 78.0136 35.8339 75.8129 37.2181 73.2457C39.9838 68.1161 46.0377 61.662 54.9011 54.3127C72.6184 39.6219 101.444 21.4497 137.184 3.28809Z" stroke="white" stroke-width="2"/>
<path opacity="0.206897" d="M141.311 1.90341C180.179 -14.5752 218.553 -27.6039 249.161 -35.3496C264.474 -39.2244 277.797 -41.7647 288.236 -42.7629C293.462 -43.2625 297.895 -43.3685 301.449 -43.0839C305.023 -42.7977 307.46 -42.14 308.995 -41.2386C310.531 -40.3371 311.44 -39.0308 311.43 -37.2247C311.419 -35.4292 310.495 -33.2637 308.664 -30.7713C305.005 -25.7924 297.83 -19.6429 287.695 -12.7289C267.435 1.09204 235.473 17.8847 196.606 34.3633C157.738 50.8419 119.364 63.8701 88.7549 71.6157C73.4428 75.4905 60.1205 78.0315 49.6811 79.0296C44.4555 79.5292 40.0229 79.6348 36.4694 79.3503C32.8949 79.0641 30.4573 78.406 28.9216 77.5044C27.386 76.6029 26.478 75.297 26.4884 73.4911C26.4987 71.6956 27.4225 69.5303 29.2537 67.038C32.9121 62.0591 40.0864 55.9091 50.2214 48.9951C70.481 35.1741 102.444 18.382 141.311 1.90341Z" stroke="white" stroke-width="2"/>
<path opacity="0.241379" d="M145.64 0.64615C187.339 -14.0235 227.948 -25.2879 259.881 -31.6443C275.855 -34.824 289.613 -36.7663 300.224 -37.3016C305.537 -37.5696 309.99 -37.4808 313.495 -37.0422C317.035 -36.5993 319.315 -35.8398 320.644 -34.9108C321.974 -33.9817 322.666 -32.6636 322.34 -30.8605C322.017 -29.0753 320.716 -26.9622 318.451 -24.5643C313.927 -19.775 305.685 -13.9779 294.355 -7.55228C271.707 5.29272 236.851 20.5769 195.152 35.2465C153.453 49.9161 112.844 61.1803 80.9115 67.5367C64.9373 70.7164 51.1795 72.6587 40.5681 73.194C35.2555 73.462 30.8027 73.3732 27.2977 72.9346C23.7578 72.4916 21.4772 71.7321 20.1478 70.8031C18.8184 69.8741 18.1259 68.556 18.452 66.7529C18.7749 64.9677 20.0766 62.8545 22.3416 60.4567C26.8657 55.6674 35.1074 49.8703 46.4369 43.4447C69.0848 30.5997 103.941 15.3157 145.64 0.64615Z" stroke="white" stroke-width="2"/>
<path opacity="0.275862" d="M150.142 -0.478079C194.355 -13.2265 236.887 -22.6406 269.9 -27.5585C286.415 -30.0187 300.503 -31.347 311.204 -31.4146C316.562 -31.4484 321.001 -31.1654 324.43 -30.5757C327.908 -29.9777 330.018 -29.1251 331.145 -28.178C332.272 -27.2307 332.75 -25.9069 332.107 -24.1205C331.473 -22.3593 329.803 -20.3149 327.122 -18.0305C321.766 -13.4682 312.52 -8.06819 300.082 -2.18024C275.218 9.59009 237.733 23.2484 193.521 35.9968C149.308 48.7452 106.776 58.1591 73.7631 63.077C57.2489 65.5372 43.1605 66.8655 32.4592 66.9331C27.1011 66.9669 22.6628 66.6839 19.2332 66.0942C15.7548 65.4961 13.6441 64.643 12.5175 63.6958C11.3912 62.7485 10.9137 61.4252 11.5563 59.639C12.19 57.8778 13.8602 55.8334 16.5419 53.549C21.8977 48.9867 31.1438 43.5867 43.5815 37.6987C68.445 25.9285 105.929 12.2703 150.142 -0.478079Z" stroke="white" stroke-width="2"/>
<path opacity="0.310345" d="M154.795 -1.46632C201.184 -12.1962 245.317 -19.6876 279.157 -23.1291C296.085 -24.8506 310.395 -25.554 321.102 -25.1529C326.464 -24.9521 330.853 -24.4765 334.18 -23.7402C337.567 -22.9905 339.498 -22.0531 340.431 -21.0926C341.363 -20.132 341.625 -18.8087 340.667 -17.054C339.727 -15.3306 337.702 -13.3706 334.624 -11.2177C328.477 -6.91823 318.299 -1.95758 304.848 3.34741C277.958 13.9527 238.131 25.881 191.741 36.6109C145.352 47.3408 101.219 54.8322 67.3785 58.2737C50.4504 59.9952 36.1405 60.6988 25.4326 60.2977C20.0707 60.0969 15.6816 59.6207 12.3545 58.8842C8.96725 58.1344 7.03586 57.1973 6.10375 56.2366C5.17185 55.276 4.90979 53.9525 5.86689 52.1981C6.80716 50.4746 8.83333 48.5154 11.9112 46.3625C18.058 42.063 28.2371 37.1023 41.6881 31.7972C68.5777 21.1918 108.405 9.26356 154.795 -1.46632Z" stroke="white" stroke-width="2"/>
<path opacity="0.344828" d="M159.573 -2.31629C207.787 -10.9457 253.182 -16.4567 287.591 -18.3952C304.804 -19.3648 319.225 -19.4386 329.856 -18.5715C335.179 -18.1374 339.484 -17.4723 342.682 -16.5947C345.946 -15.6989 347.695 -14.6848 348.443 -13.7105C349.191 -12.7362 349.234 -11.4175 347.969 -9.71112C346.729 -8.03924 344.363 -6.18038 340.913 -4.17591C334.023 -0.172828 322.988 4.31049 308.627 8.99209C279.917 18.3511 238.051 28.4574 189.838 37.0868C141.625 45.7162 96.2304 51.228 61.8207 53.1665C44.6084 54.1361 30.1872 54.2088 19.5562 53.3419C14.2327 52.9077 9.92796 52.2428 6.72988 51.3652C3.46592 50.4695 1.7177 49.456 0.969157 48.4818C0.220776 47.5074 0.177271 46.1882 1.44275 44.4816C2.68258 42.8097 5.04887 40.9508 8.49925 38.9462C15.3897 34.9432 26.4239 30.4607 40.7852 25.7792C69.4953 16.4202 111.36 6.3131 159.573 -2.31629Z" stroke="white" stroke-width="2"/>
<path opacity="0.37931" d="M164.453 -3.02704C214.122 -9.49007 260.434 -12.9794 295.15 -13.3998C312.515 -13.6102 326.936 -13.052 337.407 -11.7257C342.651 -11.0615 346.836 -10.2123 349.879 -9.20045C352.989 -8.16661 354.553 -7.0845 355.127 -6.09143C355.701 -5.09835 355.519 -3.789 353.956 -2.14721C352.426 -0.540268 349.739 1.20317 345.943 3.04365C338.362 6.71894 326.559 10.6894 311.396 14.7117C281.085 22.7526 237.501 30.9608 187.832 37.4238C138.163 43.8868 91.8519 47.376 57.1367 47.7965C39.7715 48.0068 25.3506 47.4486 14.8793 46.1223C9.6355 45.4581 5.44907 44.6091 2.40582 43.5972C-0.703097 42.5634 -2.26676 41.4811 -2.84068 40.4881C-3.41458 39.495 -3.23321 38.1857 -1.67058 36.544C-0.140905 34.937 2.54717 33.1935 6.34339 31.353C13.9241 27.6777 25.7276 23.7072 40.8897 19.685C71.2008 11.6441 114.785 3.43597 164.453 -3.02704Z" stroke="white" stroke-width="2"/>
<path opacity="0.413793" d="M169.416 -3.59708C220.162 -7.84443 267.036 -9.28421 301.791 -8.18348C319.177 -7.63287 333.487 -6.44832 343.717 -4.67299C348.84 -3.78403 352.873 -2.75774 355.736 -1.61983C358.659 -0.458243 360.04 0.686952 360.444 1.70615C360.848 2.72528 360.433 4.02009 358.589 5.58054C356.782 7.10941 353.795 8.72325 349.683 10.3851C341.471 13.704 328.988 17.132 313.141 20.4641C281.461 27.1254 236.491 33.372 185.745 37.6193C135 41.8667 88.1258 43.3073 53.3705 42.2066C35.9853 41.656 21.6755 40.4704 11.4455 38.6952C6.32276 37.8062 2.28909 36.78 -0.574705 35.6421C-3.49748 34.4806 -4.87811 33.336 -5.28209 32.3169C-5.68588 31.2978 -5.27201 30.0023 -3.42736 28.4417C-1.62012 26.9128 1.36767 25.299 5.47973 23.637C13.6916 20.3182 26.1739 16.8911 42.0209 13.559C73.701 6.89769 118.67 0.650272 169.416 -3.59708Z" stroke="white" stroke-width="2"/>
<path opacity="0.448276" d="M174.439 -4.02239C225.875 -6.02174 272.954 -5.40195 307.484 -2.78857C324.756 -1.48129 338.843 0.321772 348.753 2.53204C353.714 3.63878 357.563 4.83356 360.225 6.08831C362.934 7.3657 364.132 8.56747 364.363 9.61926C364.594 10.6711 363.94 11.9447 361.833 13.4094C359.763 14.8481 356.499 16.3201 352.104 17.7906C343.325 20.7273 330.261 23.5858 313.85 26.2024C281.044 31.4332 235.031 35.6716 183.596 37.6709C132.16 39.6703 85.0811 39.0505 50.5517 36.4371C33.2793 35.1298 19.191 33.3268 9.28185 31.1166C4.31988 30.0097 0.47093 28.8143 -2.1906 27.5594C-4.90021 26.2819 -6.09752 25.0804 -6.32852 24.0285C-6.55934 22.9767 -5.90559 21.703 -3.79842 20.2384C-1.72843 18.7997 1.53509 17.3284 5.93083 15.8579C14.7096 12.9212 27.7741 10.0628 44.1849 7.44619C76.9915 2.21539 123.004 -2.02303 174.439 -4.02239Z" stroke="white" stroke-width="2"/>
<path opacity="0.482759" d="M179.502 -4.29851C231.235 -4.03479 278.16 -1.36002 312.199 2.74575C329.226 4.79961 342.984 7.20626 352.496 9.83403C357.258 11.1498 360.892 12.5039 363.331 13.8654C365.804 15.2462 366.816 16.5 366.865 17.5873C366.915 18.6748 366.016 19.9194 363.667 21.2758C361.352 22.613 357.838 23.9307 353.193 25.1985C343.916 27.7305 330.371 29.998 313.522 31.8792C279.84 35.6397 233.137 37.8372 181.404 37.5734C129.671 37.3097 82.7467 34.6349 48.7076 30.5292C31.68 28.4753 17.9221 26.0687 8.41079 23.4409C3.64845 22.1252 0.0139536 20.771 -2.42451 19.4095C-4.89773 18.0286 -5.90957 16.7742 -5.95896 15.6868C-6.00812 14.5994 -5.1097 13.3554 -2.76108 11.9992C-0.445197 10.6619 3.06792 9.34418 7.71294 8.07639C16.9899 5.54441 30.5355 3.27693 47.3844 1.39577C81.0662 -2.36475 127.769 -4.56222 179.502 -4.29851Z" stroke="white" stroke-width="2"/>
<path opacity="0.517241" d="M184.584 -4.42168C236.221 -1.89708 282.633 2.81223 315.921 8.37863C332.574 11.1632 345.895 14.1545 354.935 17.1788C359.461 18.693 362.852 20.1955 365.049 21.6528C367.268 23.1247 368.089 24.4261 367.945 25.5469C367.8 26.6678 366.655 27.873 364.086 29.1108C361.543 30.3364 357.809 31.4905 352.951 32.5459C343.249 34.6539 329.327 36.3133 312.169 37.4448C277.87 39.7067 230.832 39.847 179.196 37.3224C127.559 34.7978 81.1483 30.0885 47.8596 24.5222C31.2072 21.7376 17.8862 18.7463 8.84619 15.7219C4.32041 14.2078 0.928859 12.7053 -1.26802 11.248C-3.4868 9.77606 -4.30827 8.47468 -4.16363 7.35385C-4.01894 6.233 -2.87392 5.02781 -0.305306 3.78996C2.2379 2.56439 5.97232 1.41027 10.8299 0.354894C20.5323 -1.75311 34.4537 -3.41248 51.6117 -4.54398C85.9108 -6.80588 132.948 -6.94627 184.584 -4.42168Z" stroke="white" stroke-width="2"/>
<path opacity="0.551724" d="M189.658 -4.38779C240.803 0.378133 286.348 7.08485 318.631 14.0687C334.781 17.5625 347.564 21.1157 356.063 24.5126C360.317 26.2131 363.441 27.8519 365.38 29.3938C367.33 30.9445 367.953 32.2876 367.602 33.4346C367.25 34.5818 365.861 35.7379 363.094 36.8492C360.343 37.9541 356.417 38.9359 351.385 39.7711C341.332 41.4393 327.142 42.4784 309.806 42.8518C275.153 43.5982 228.14 41.6809 176.994 36.9149C125.849 32.149 80.3049 25.4416 48.0212 18.4576C31.8711 14.9639 19.0885 11.4114 10.5894 8.0145C6.33507 6.3141 3.21258 4.67524 1.27351 3.13346C-0.677015 1.58253 -1.29967 0.238992 -0.947954 -0.90815C-0.59611 -2.05521 0.792781 -3.21072 3.55936 -4.32199C6.30986 -5.4268 10.2359 -6.40882 15.2676 -7.24392C25.3198 -8.91219 39.5103 -9.95194 56.8461 -10.3254C91.4999 -11.0718 138.512 -9.15371 189.658 -4.38779Z" stroke="white" stroke-width="2"/>
<path opacity="0.586207" d="M194.699 -4.19573C244.963 2.77481 289.292 11.4278 320.324 19.7751C335.848 23.9511 347.994 28.0371 355.887 31.7797C359.838 33.6528 362.67 35.4148 364.337 37.0294C366.008 38.6477 366.422 40.0264 365.853 41.1888C365.283 42.3513 363.657 43.4476 360.713 44.4261C357.776 45.4021 353.687 46.2044 348.52 46.8132C338.197 48.0295 323.848 48.4413 306.467 48.0541C271.724 47.2799 225.096 43.3194 174.831 36.3489C124.566 29.3783 80.237 20.7252 49.2049 12.3778C33.6804 8.20188 21.535 4.11591 13.6415 0.373299C9.6912 -1.49973 6.86018 -3.26171 5.19274 -4.87623C3.5213 -6.49474 3.10793 -7.87394 3.67755 -9.03639C4.24728 -10.1987 5.87348 -11.2946 8.81724 -12.2729C11.7541 -13.249 15.8417 -14.0515 21.0082 -14.6602C31.3316 -15.8766 45.681 -16.2883 63.062 -15.9011C97.8051 -15.127 144.434 -11.1663 194.699 -4.19573Z" stroke="white" stroke-width="2"/>
<path opacity="0.62069" d="M199.673 -3.84594C248.673 5.2756 291.449 15.8081 320.992 25.4543C335.772 30.2801 347.188 34.8673 354.416 38.926C358.032 40.9568 360.551 42.8282 361.935 44.5035C363.319 46.1784 363.513 47.5841 362.718 48.7483C361.924 49.9126 360.07 50.9376 356.97 51.7778C353.868 52.6182 349.65 53.2356 344.39 53.6139C333.875 54.3698 319.477 54.1518 302.185 53.0072C267.618 50.7193 221.73 44.7469 172.729 35.6253C123.729 26.5038 80.9533 15.9713 51.4098 6.32512C36.6297 1.49926 25.2134 -3.08808 17.9855 -7.14677C14.369 -9.17754 11.85 -11.049 10.466 -12.7244C9.08238 -14.3993 8.88933 -15.8053 9.68406 -16.9696C10.4789 -18.1337 12.3313 -19.1585 15.4314 -19.9987C18.5326 -20.839 22.7507 -21.4565 28.0115 -21.8347C38.5259 -22.5906 52.9246 -22.3725 70.2176 -21.2278C104.784 -18.9399 150.672 -12.9675 199.673 -3.84594Z" stroke="white" stroke-width="2"/>
<path opacity="0.655172" d="M204.555 -3.34156C251.917 7.86081 292.813 20.1914 320.643 31.0617C334.565 36.5 345.164 41.5526 351.672 45.8954C354.928 48.0676 357.116 50.0343 358.207 51.7581C359.296 53.4785 359.259 54.9016 358.236 56.0531C357.213 57.2044 355.148 58.1473 351.912 58.8447C348.67 59.5435 344.354 59.9716 339.04 60.117C328.416 60.4077 314.079 59.5625 297.007 57.6698C262.882 53.8866 218.085 45.9486 170.722 34.7462C123.359 23.5439 82.4636 11.2133 54.6341 0.342977C40.7111 -5.09539 30.1124 -10.1479 23.6042 -14.4907C20.3487 -16.663 18.1603 -18.6295 17.0694 -20.3534C15.9807 -22.0737 16.0161 -23.4966 17.0387 -24.6481C18.0615 -25.7996 20.1277 -26.7426 23.3642 -27.44C26.6071 -28.1388 30.9227 -28.567 36.237 -28.7124C46.8609 -29.003 61.197 -28.1579 78.2694 -26.2651C112.394 -22.4819 157.192 -14.5439 204.555 -3.34156Z" stroke="white" stroke-width="2"/>
<path opacity="0.689655" d="M209.314 -2.68666C254.678 10.5104 293.381 24.5444 319.284 36.5546C332.244 42.5634 341.946 48.0413 347.686 52.6341C350.557 54.9307 352.4 56.9771 353.19 58.737C353.978 60.4917 353.705 61.9216 352.455 63.0454C351.205 64.1693 348.942 65.0202 345.591 65.5708C342.23 66.1231 337.849 66.3593 332.523 66.2715C321.871 66.0957 307.707 64.6304 290.986 62.0046C257.564 56.756 214.198 46.9147 168.835 33.7177C123.471 20.5206 84.7678 6.48669 58.8644 -5.52358C45.9051 -11.5322 36.2035 -17.01 30.4635 -21.6028C27.5931 -23.8995 25.7496 -25.9465 24.9595 -27.7065C24.1718 -29.4611 24.4459 -30.8908 25.6954 -32.0146C26.9451 -33.1383 29.2072 -33.9897 32.5583 -34.5403C35.9195 -35.0926 40.3008 -35.328 45.6272 -35.2401C56.2787 -35.0643 70.4421 -33.5993 87.1629 -30.9735C120.585 -25.725 163.95 -15.8837 209.314 -2.68666Z" stroke="white" stroke-width="2"/>
<path opacity="0.724138" d="M213.926 -1.88759C256.944 13.2027 293.161 28.8311 316.941 41.8882C328.839 48.4207 337.571 54.2811 342.501 59.0882C347.475 63.9389 348.371 67.505 345.427 69.6698C342.483 71.8346 335.599 72.6718 324.905 72.0263C314.308 71.3866 300.424 69.3144 284.182 65.9762C251.718 59.3039 210.117 47.6351 167.098 32.5449C124.079 17.4546 87.8621 1.8259 64.0816 -11.2313C52.1842 -17.7638 43.4527 -23.6247 38.5227 -28.4318C33.5481 -33.2826 32.6525 -36.8486 35.5965 -39.0134C38.5408 -41.1781 45.4245 -42.0153 56.1182 -41.3699C66.7158 -40.7302 80.599 -38.6575 96.8406 -35.3193C129.304 -28.647 170.907 -16.9779 213.926 -1.88759Z" stroke="white" stroke-width="2"/>
<path opacity="0.758621" d="M218.362 -0.952332C258.708 15.9151 292.162 33.0182 313.639 47.0213C324.384 54.0268 332.081 60.2239 336.165 65.2081C340.276 70.2243 340.585 73.8256 337.222 75.8751C333.858 77.9246 326.79 78.4416 316.26 77.3371C305.797 76.2395 292.3 73.5764 276.663 69.5523C245.405 61.5087 205.883 48.1031 165.537 31.2356C125.19 14.3682 91.7365 -2.7349 70.2591 -16.738C59.5142 -23.7436 51.8165 -29.9409 47.7322 -34.9252C43.6219 -39.9413 43.3133 -43.5423 46.6768 -45.5918C50.0402 -47.6413 57.1078 -48.1587 67.6376 -47.0542C78.1006 -45.9567 91.5979 -43.2932 107.236 -39.269C138.493 -31.2254 178.015 -17.8198 218.362 -0.952332Z" stroke="white" stroke-width="2"/>
<path opacity="0.793103" d="M222.598 0.1103C259.965 18.6252 290.403 37.0705 309.415 51.9112C318.926 59.3355 325.531 65.8219 328.741 70.9451C331.964 76.0898 331.673 79.7002 327.912 81.6111C324.152 83.5218 316.961 83.7136 306.669 82.1613C296.419 80.6154 283.411 77.3834 268.496 72.7049C238.683 63.353 201.542 48.3138 164.175 29.7989C126.808 11.284 96.3703 -7.16129 77.3581 -22.0019C67.8468 -29.4264 61.2421 -35.9126 58.0321 -41.0359C54.8087 -46.1805 55.0991 -49.791 58.8592 -51.702C62.6196 -53.6129 69.8112 -53.8045 80.1041 -52.2521C90.3538 -50.7061 103.363 -47.4742 118.277 -42.7957C148.091 -33.4438 185.231 -18.4046 222.598 0.1103Z" stroke="white" stroke-width="2"/>
<path opacity="0.827586" d="M226.611 1.2902C260.715 21.3104 287.906 40.9562 304.31 56.5201C312.516 64.3058 317.981 71.0308 320.295 76.2541C322.614 81.4907 321.715 85.0838 317.586 86.8345C313.457 88.5851 306.204 88.4483 296.219 86.4617C286.259 84.48 273.837 80.7047 259.759 75.4086C231.616 64.8215 197.138 48.2652 163.034 28.245C128.93 8.22473 101.739 -11.421 85.3346 -26.9849C77.1281 -34.7709 71.6625 -41.4961 69.3489 -46.7195C67.0295 -51.9561 67.9297 -55.5486 72.0588 -57.2993C76.188 -59.05 83.4401 -58.9137 93.425 -56.9271C103.385 -54.9455 115.808 -51.1697 129.886 -45.8735C158.029 -35.2863 192.507 -18.73 226.611 1.2902Z" stroke="white" stroke-width="2"/>
<path opacity="0.862069" d="M230.382 2.57663C260.964 23.9487 284.703 44.644 298.378 60.8119C305.219 68.8995 309.506 75.8125 310.908 81.0969C312.311 86.3882 310.8 89.9345 306.336 91.5052C301.871 93.0759 294.621 92.6117 285.012 90.207C275.415 87.8053 263.672 83.5157 250.536 77.6428C224.275 65.9024 192.72 47.9566 162.138 26.5846C131.555 5.21251 107.816 -15.4828 94.1412 -31.6507C87.3005 -39.7383 83.0137 -46.6513 81.6118 -51.9357C80.2081 -57.227 81.719 -60.7733 86.1839 -62.344C90.6488 -63.9148 97.8987 -63.4505 107.508 -61.0458C117.104 -58.6442 128.848 -54.3545 141.984 -48.4816C168.244 -36.7412 199.799 -18.7954 230.382 2.57663Z" stroke="white" stroke-width="2"/>
<path opacity="0.896552" d="M233.89 3.95778C260.721 26.5183 280.831 48.1051 291.677 64.7538C297.102 73.0815 300.179 80.1302 300.661 85.4364C301.142 90.745 299.023 94.2155 294.26 95.5889C289.497 96.9622 282.313 96.1742 273.147 93.3699C263.984 90.5668 253.005 85.7963 240.91 79.392C216.729 66.5886 188.335 47.3902 161.504 24.8298C134.674 2.26913 114.562 -19.3182 103.717 -35.967C98.2922 -44.2946 95.2145 -51.3434 94.733 -56.6496C94.2514 -61.9581 96.3707 -65.4287 101.134 -66.8021C105.896 -68.1754 113.08 -67.3873 122.247 -64.5831C131.41 -61.78 142.388 -57.0094 154.484 -50.6052C178.665 -37.8017 207.06 -18.6028 233.89 3.95778Z" stroke="white" stroke-width="2"/>
<path opacity="0.931035" d="M237.119 5.42094C259.997 28.9986 276.329 51.3134 284.266 68.3173C288.236 76.8223 290.085 83.9544 289.644 89.2431C289.203 94.5315 286.484 97.8968 281.465 99.0577C276.446 100.219 269.39 99.114 260.729 95.931C252.068 92.7477 241.935 87.5315 230.97 80.6445C209.048 66.8753 184.026 46.5706 161.148 22.993C138.27 -0.584793 121.938 -22.9001 114.001 -39.9042C110.031 -48.4091 108.181 -55.5412 108.623 -60.8299C109.064 -66.1183 111.782 -69.4836 116.801 -70.6445C121.82 -71.8054 128.876 -70.7008 137.537 -67.5178C146.199 -64.3346 156.331 -59.1183 167.296 -52.2313C189.219 -38.462 214.242 -18.1569 237.119 5.42094Z" stroke="white" stroke-width="2"/>
<path opacity="0.965517" d="M240.055 6.95223C258.809 31.3692 271.243 54.2448 276.215 71.4772C278.702 80.0958 279.308 87.2576 277.949 92.4898C276.589 97.7204 273.289 100.951 268.059 101.887C262.829 102.823 255.964 101.412 247.869 97.8735C239.772 94.334 230.56 88.7125 220.806 81.3946C201.304 66.7629 179.839 45.5035 161.085 21.0865C142.331 -3.3303 129.897 -26.2053 124.925 -43.4376C122.438 -52.0564 121.831 -59.2187 123.191 -64.451C124.55 -69.6815 127.851 -72.9123 133.081 -73.8483C138.31 -74.7843 145.176 -73.3732 153.271 -69.8348C161.368 -66.2952 170.58 -60.6731 180.334 -53.355C199.837 -38.7234 221.301 -17.4646 240.055 6.95223Z" stroke="white" stroke-width="2"/>
<path d="M242.687 8.53953C257.178 33.6119 265.623 56.8761 267.594 74.2089C268.58 82.8779 267.94 90.0181 265.672 95.1554C263.405 100.291 259.546 103.358 254.154 104.06C248.761 104.761 242.144 103.057 234.674 99.1889C227.201 95.3193 218.975 89.3324 210.504 81.6376C193.566 66.2523 175.819 44.1986 161.328 19.1261C146.837 -5.94654 138.393 -29.2113 136.422 -46.5442C135.436 -55.2129 136.075 -62.3525 138.343 -67.4897C140.61 -72.6248 144.469 -75.6922 149.861 -76.394C155.254 -77.0957 161.87 -75.3914 169.341 -71.5233C176.814 -67.6536 185.04 -61.6677 193.512 -53.9729C210.45 -38.5875 228.196 -16.5331 242.687 8.53953Z" stroke="white" stroke-width="2"/>
</g>
<rect opacity="0.4" width="285" height="159" rx="8" fill="url(#paint0_linear_1_1162)"/>
</g>
<defs>
<linearGradient id="paint0_linear_1_1162" x1="0" y1="79.5" x2="285" y2="79.5" gradientUnits="userSpaceOnUse">
<stop offset="0.5" stop-color="white" stop-opacity="0"/>
<stop offset="1" stop-color="white" stop-opacity="0.67"/>
</linearGradient>
</defs>
</svg>
